<svg width="122" height="24" viewBox="0 0 122 24" fill="none" xmlns="http://www.w3.org/2000/svg">
<path d="M9.86304 1.33752C10.5149 0.276084 11.9929 0.227044 12.7214 1.19006C14.0458 0.316589 15.8508 0.218802 17.325 1.34827L17.3259 1.34924L26.1541 8.13538L26.1599 8.13049L26.5076 8.39807C28.6971 10.0831 28.6981 13.4811 26.5066 15.1617L26.5076 15.1627L17.3259 22.2164L17.325 22.2155C15.8495 23.3509 14.0404 23.2482 12.7156 22.3698C11.9598 23.3594 10.4093 23.2708 9.79761 22.1022V22.1012C7.85683 18.4077 4.94494 15.3755 1.40503 13.3571V13.358C0.233375 12.6929 0.19662 10.9897 1.29468 10.2594L1.40503 10.191C4.94505 8.17751 7.86176 5.14062 9.79761 1.45178L9.86304 1.33752ZM12.4871 2.7594C12.0891 3.285 11.8425 3.95483 11.8425 4.73108V18.8248L11.8474 19.0367C11.8862 19.7239 12.1222 20.3214 12.4812 20.8004C14.4923 17.3221 17.3527 14.4458 20.7917 12.4889V12.4879L20.8855 12.4254C21.3239 12.0842 21.2928 11.3457 20.7917 11.0612H20.7908C17.3572 9.10467 14.4982 6.23242 12.4871 2.7594Z" fill="url(#paint0_radial_5294_70774)"/>
<path d="M9.86304 1.33752C10.5149 0.276084 11.9929 0.227044 12.7214 1.19006C14.0458 0.316589 15.8508 0.218802 17.325 1.34827L17.3259 1.34924L26.1541 8.13538L26.1599 8.13049L26.5076 8.39807C28.6971 10.0831 28.6981 13.4811 26.5066 15.1617L26.5076 15.1627L17.3259 22.2164L17.325 22.2155C15.8495 23.3509 14.0404 23.2482 12.7156 22.3698C11.9598 23.3594 10.4093 23.2708 9.79761 22.1022V22.1012C7.85683 18.4077 4.94494 15.3755 1.40503 13.3571V13.358C0.233375 12.6929 0.19662 10.9897 1.29468 10.2594L1.40503 10.191C4.94505 8.17751 7.86176 5.14062 9.79761 1.45178L9.86304 1.33752ZM12.4871 2.7594C12.0891 3.285 11.8425 3.95483 11.8425 4.73108V18.8248L11.8474 19.0367C11.8862 19.7239 12.1222 20.3214 12.4812 20.8004C14.4923 17.3221 17.3527 14.4458 20.7917 12.4889V12.4879L20.8855 12.4254C21.3239 12.0842 21.2928 11.3457 20.7917 11.0612H20.7908C17.3572 9.10467 14.4982 6.23242 12.4871 2.7594Z" fill="url(#paint1_linear_5294_70774)"/>
<path d="M9.86304 1.33752C10.5149 0.276084 11.9929 0.227044 12.7214 1.19006C14.0458 0.316589 15.8508 0.218802 17.325 1.34827L17.3259 1.34924L26.1541 8.13538L26.1599 8.13049L26.5076 8.39807C28.6971 10.0831 28.6981 13.4811 26.5066 15.1617L26.5076 15.1627L17.3259 22.2164L17.325 22.2155C15.8495 23.3509 14.0404 23.2482 12.7156 22.3698C11.9598 23.3594 10.4093 23.2708 9.79761 22.1022V22.1012C7.85683 18.4077 4.94494 15.3755 1.40503 13.3571V13.358C0.233375 12.6929 0.19662 10.9897 1.29468 10.2594L1.40503 10.191C4.94505 8.17751 7.86176 5.14062 9.79761 1.45178L9.86304 1.33752ZM12.4871 2.7594C12.0891 3.285 11.8425 3.95483 11.8425 4.73108V18.8248L11.8474 19.0367C11.8862 19.7239 12.1222 20.3214 12.4812 20.8004C14.4923 17.3221 17.3527 14.4458 20.7917 12.4889V12.4879L20.8855 12.4254C21.3239 12.0842 21.2928 11.3457 20.7917 11.0612H20.7908C17.3572 9.10467 14.4982 6.23242 12.4871 2.7594Z" stroke="white"/>
<path d="M112.654 3.13354V8.15308C112.866 7.96313 113.091 7.79318 113.33 7.64526L113.335 7.64233L113.606 7.49097C113.881 7.34913 114.172 7.23589 114.477 7.15015C114.886 7.03502 115.306 6.9773 115.736 6.97729C116.576 6.97729 117.356 7.14891 118.068 7.49976L118.327 7.6355C118.922 7.96354 119.445 8.38684 119.894 8.90405H119.895C120.409 9.48963 120.804 10.1756 121.082 10.9548C121.362 11.7376 121.5 12.5715 121.5 13.4519C121.5 14.3337 121.358 15.1716 121.07 15.9617C120.792 16.7381 120.399 17.4238 119.888 18.0144L119.889 18.0154C119.383 18.6086 118.778 19.0787 118.08 19.4236L118.076 19.4255C117.367 19.7679 116.594 19.9363 115.768 19.9363C115.331 19.9362 114.905 19.8791 114.489 19.7644C114.077 19.6505 113.689 19.4875 113.328 19.2742L113.321 19.2703C113.036 19.0953 112.772 18.8905 112.527 18.6599V19.5964H109.111V3.13354H112.654ZM115.295 10.4265C114.925 10.4265 114.585 10.5021 114.27 10.6521C113.943 10.8073 113.66 11.0181 113.416 11.2849C113.174 11.5503 112.978 11.8694 112.83 12.2488C112.693 12.6106 112.622 13.0103 112.622 13.4519C112.622 13.908 112.697 14.3222 112.841 14.699C112.995 15.0773 113.195 15.3958 113.437 15.6609C113.677 15.9177 113.957 16.1194 114.28 16.2673H114.281C114.61 16.4144 114.949 16.488 115.306 16.488C115.667 16.488 116.006 16.4197 116.327 16.2859C116.65 16.1444 116.929 15.9494 117.168 15.7C117.407 15.4436 117.603 15.1308 117.75 14.7527L117.751 14.7488L117.804 14.6072C117.918 14.2691 117.979 13.8857 117.979 13.4519C117.979 12.9784 117.904 12.5608 117.761 12.1941L117.76 12.1912C117.612 11.8051 117.416 11.4892 117.178 11.2341C116.937 10.9765 116.658 10.7775 116.335 10.6365C116.016 10.4971 115.671 10.4265 115.295 10.4265Z" fill="#090C10" stroke="white"/>
<path d="M100.377 7.30664V13.7588C100.377 14.7478 100.58 15.4189 100.912 15.8457C101.223 16.2384 101.698 16.4658 102.43 16.4658C103.169 16.4658 103.642 16.2343 103.945 15.8379C104.273 15.4102 104.473 14.741 104.473 13.7588V7.30664H108.004V13.8359C108.004 14.8794 107.87 15.7974 107.585 16.5771C107.305 17.3438 106.913 17.9921 106.398 18.5059L106.395 18.5088C105.884 19.0096 105.282 19.375 104.595 19.6035C103.923 19.827 103.203 19.9365 102.441 19.9365C101.671 19.9365 100.945 19.8276 100.267 19.6045L100.266 19.6035C99.5786 19.375 98.9765 19.0096 98.4659 18.5088L98.463 18.5059C97.9477 17.992 97.5544 17.344 97.2745 16.5771C96.99 15.7974 96.8556 14.8794 96.8556 13.8359V7.30664H100.377Z" fill="#090C10" stroke="white"/>
<path d="M85.6943 3.66077V9.8551H91.9014V3.66077H95.5283V19.5963H91.9014V13.2926H85.6943V19.5963H82.0781V3.66077H85.6943Z" fill="#090C10" stroke="white"/>
<path d="M76.2367 6.96643C76.9319 6.96643 77.5767 7.06119 78.1664 7.25549L78.1674 7.25452C78.7563 7.44639 79.2717 7.72292 79.7045 8.08948H79.7054C80.1479 8.45111 80.4926 8.89123 80.7347 9.40588H80.7338C80.9787 9.91909 81.097 10.4835 81.097 11.0905V11.5953L80.5922 11.5905L78.1029 11.569L77.639 11.5641L77.6078 11.1022C77.5885 10.8143 77.4801 10.6005 77.2777 10.4274L77.2728 10.4225C77.0895 10.2614 76.7751 10.1412 76.2474 10.1412C75.7632 10.1412 75.5194 10.2527 75.4008 10.3698L75.3959 10.3756C75.2406 10.5245 75.1713 10.6877 75.1713 10.8932C75.1713 11.0532 75.1927 11.1635 75.2181 11.2369C75.234 11.2714 75.2702 11.326 75.3656 11.3903C75.4777 11.458 75.6573 11.533 75.9232 11.6061C76.2005 11.6748 76.5636 11.7489 77.016 11.8278H77.015C77.5928 11.9186 78.1352 12.0397 78.641 12.193H78.64C79.168 12.3456 79.6399 12.5661 80.0482 12.859C80.4695 13.1613 80.8004 13.55 81.0385 14.0182L81.1293 14.2057C81.325 14.6535 81.4125 15.1731 81.4125 15.7467C81.4125 16.4284 81.2844 17.0472 81.014 17.5895L81.015 17.5905C80.7567 18.1221 80.3907 18.5691 79.9213 18.9244C79.4586 19.2745 78.9198 19.5261 78.3138 19.6871L78.3148 19.6881C77.7125 19.8555 77.0641 19.9371 76.3734 19.9371C75.5356 19.9371 74.7817 19.8171 74.1234 19.5631V19.5621C73.4918 19.323 72.9493 18.9989 72.5092 18.5807L72.5062 18.5768C72.08 18.1642 71.7558 17.689 71.5394 17.153L71.5355 17.1442L71.5365 17.1432C71.3334 16.612 71.2299 16.0654 71.2299 15.5055V15.0026L71.7318 15.0055L74.1693 15.0162L74.641 15.0182L74.6664 15.4889L74.681 15.6393C74.6998 15.7796 74.7332 15.9118 74.7816 16.0367L74.8383 16.149C74.8997 16.2549 74.9775 16.3494 75.0726 16.4342C75.2057 16.5467 75.3771 16.6442 75.5961 16.7213C75.8078 16.7888 76.0715 16.8287 76.3949 16.8287C77.0059 16.8287 77.3484 16.7059 77.5248 16.5592C77.719 16.3963 77.8167 16.1928 77.8168 15.901C77.8168 15.7246 77.7811 15.6281 77.7484 15.5768L77.7426 15.568C77.6971 15.4934 77.6201 15.4134 77.4847 15.3375C77.3389 15.2558 77.1466 15.1827 76.8998 15.1246L76.8881 15.1217C76.6278 15.0537 76.3188 14.9909 75.9594 14.9342V14.9332C75.4168 14.8561 74.897 14.7374 74.4008 14.5748C73.8841 14.4055 73.4197 14.1686 73.014 13.861L73.0101 13.858C72.5996 13.5404 72.2728 13.1421 72.0306 12.6696L72.0277 12.6637C71.7822 12.1682 71.6713 11.5896 71.6713 10.9479C71.6713 10.3713 71.768 9.83295 71.9711 9.34045C72.1741 8.84068 72.4768 8.41167 72.8773 8.06018L73.0316 7.9303C73.4012 7.63513 73.8351 7.4082 74.3246 7.24475L74.3265 7.24377L74.5433 7.17834C75.0582 7.03509 75.6241 6.96645 76.2367 6.96643Z" fill="#090C10" stroke="white"/>
<path d="M65.6409 6.97742C66.4808 6.97742 67.2606 7.14988 67.9719 7.50085L68.2317 7.63562C68.8266 7.96366 69.3495 8.38697 69.7981 8.90417H69.7991C70.3132 9.48974 70.708 10.1757 70.9866 10.955C71.2664 11.7377 71.4045 12.5716 71.4045 13.452C71.4045 14.3338 71.2621 15.1717 70.9749 15.9618C70.6969 16.7382 70.3032 17.4239 69.7922 18.0145L69.7932 18.0155C69.287 18.6087 68.6829 19.0788 67.9846 19.4237L67.9807 19.4257C67.271 19.7681 66.4985 19.9364 65.6721 19.9364C65.236 19.9364 64.8123 19.8798 64.4026 19.7645C63.9964 19.6502 63.6147 19.4856 63.26 19.2714C63.0102 19.1205 62.777 18.9479 62.5588 18.7557V23.451H59.0159V7.30652H62.4319V8.26355C62.6786 8.03004 62.9436 7.8254 63.2288 7.6532L63.2327 7.65125L63.5071 7.50085C63.7829 7.36125 64.0715 7.24921 64.3723 7.16394V7.16296C64.7839 7.03886 65.2074 6.97742 65.6409 6.97742ZM65.1995 10.4266C64.8299 10.4267 64.4898 10.5022 64.1741 10.6522C63.8475 10.8074 63.5639 11.0182 63.3206 11.285C63.0786 11.5504 62.8823 11.8696 62.7346 12.2489C62.5979 12.6107 62.5266 13.0104 62.5266 13.452C62.5267 13.907 62.6011 14.3201 62.7444 14.6962C62.8982 15.0743 63.0972 15.3929 63.3381 15.6581L63.5266 15.8427C63.7235 16.0162 63.9452 16.1579 64.1897 16.2694C64.5167 16.4153 64.8553 16.4882 65.2102 16.4882C65.5713 16.4882 65.9102 16.4198 66.2317 16.286C66.5544 16.1445 66.8331 15.9496 67.0725 15.7001C67.3115 15.4438 67.5074 15.1309 67.6545 14.7528L67.6555 14.7489L67.7083 14.6073C67.8227 14.2692 67.883 13.8858 67.8831 13.452C67.8831 12.9785 67.808 12.561 67.6653 12.1942L67.6643 12.1913C67.5166 11.8052 67.3205 11.4893 67.0823 11.2343C66.8417 10.9767 66.562 10.7786 66.2395 10.6376C65.9205 10.4982 65.5753 10.4266 65.1995 10.4266Z" fill="#090C10" stroke="white"/>
<path d="M57.6774 7.3064V19.5964H54.1354V7.3064H57.6774ZM55.8961 2.50757C56.2012 2.5076 56.4919 2.5563 56.7584 2.66577L56.7574 2.66675C57.0162 2.77011 57.2464 2.91571 57.4342 3.11206H57.4332C57.6189 3.29879 57.761 3.51658 57.8551 3.76245C57.9479 4.00507 57.9928 4.26004 57.9928 4.52319C57.9928 4.79153 57.9483 5.05145 57.8571 5.29956L57.8551 5.30542C57.7835 5.49248 57.6842 5.66384 57.5592 5.81714L57.4244 5.96558C57.2375 6.15072 57.0107 6.28926 56.7574 6.39038L56.7584 6.39136C56.4903 6.50148 56.1956 6.54956 55.8854 6.54956C55.5853 6.54956 55.2988 6.50013 55.0338 6.39136L55.028 6.38843C54.7885 6.28644 54.5731 6.14915 54.3873 5.97437L54.3776 5.96558L54.3688 5.95581C54.1889 5.76776 54.051 5.54943 53.9576 5.30542L53.9557 5.29956C53.8644 5.05145 53.82 4.79153 53.8199 4.52319C53.8199 4.26004 53.8648 4.00507 53.9576 3.76245C54.051 3.51844 54.1889 3.30011 54.3688 3.11206L54.3776 3.10327L54.5231 2.97144C54.6748 2.84747 54.8441 2.74698 55.028 2.6687L55.0338 2.66577L55.2379 2.59448C55.4464 2.5346 55.6673 2.50757 55.8961 2.50757Z" fill="#090C10" stroke="white"/>
<path d="M52.7974 3.12256V19.5962H49.2544V3.12256H52.7974Z" fill="#090C10" stroke="white"/>
<path d="M41.3011 3.30945C42.11 3.30945 42.9136 3.43472 43.7094 3.68347C44.5139 3.93498 45.2547 4.32079 45.9301 4.83777H45.931C46.6147 5.35392 47.1982 6.00554 47.683 6.78503C48.1779 7.58099 48.5098 8.50852 48.6869 9.5575L48.7855 10.1405H45.1332L45.0394 9.75964C44.911 9.23636 44.7222 8.7984 44.4799 8.43738L44.474 8.42859C44.231 8.05082 43.9498 7.75048 43.6332 7.51941C43.3117 7.28484 42.9486 7.10844 42.5404 6.99207L42.5385 6.99109C42.1319 6.87345 41.6957 6.81335 41.2279 6.81335C40.6209 6.81337 40.0543 6.92876 39.5238 7.1571L39.5209 7.15808C39.0626 7.352 38.6558 7.62057 38.2972 7.96472L38.1459 8.11707C37.7603 8.52665 37.4503 9.02643 37.2191 9.6239C36.9922 10.2103 36.8744 10.8731 36.8744 11.618C36.8744 12.3787 36.9926 13.0483 37.2191 13.6337C37.4493 14.2284 37.7578 14.7261 38.141 15.1346L38.2914 15.2821C38.6488 15.6153 39.0554 15.8791 39.514 16.0741L39.7162 16.1503C40.1905 16.316 40.6934 16.4003 41.2279 16.4003C41.6882 16.4003 42.1214 16.3395 42.5287 16.2216H42.5306L42.8285 16.1229C43.1176 16.0133 43.3815 15.87 43.6224 15.6942L43.6263 15.6923L43.8617 15.5048C44.0897 15.3056 44.2946 15.0689 44.476 14.7919C44.713 14.4297 44.8998 13.9902 45.0287 13.4647L45.1224 13.0839H48.7855L48.6869 13.6669C48.5099 14.7151 48.1775 15.6442 47.684 16.4462L47.6849 16.4471C47.2068 17.228 46.6263 17.8805 45.9418 18.3973C45.2659 18.9076 44.5246 19.2894 43.7201 19.5409C42.9238 19.7898 42.1166 19.9149 41.3011 19.9149C40.185 19.9149 39.1326 19.7001 38.1488 19.2684L38.1449 19.2675C37.1709 18.8322 36.3191 18.2391 35.5941 17.4891L35.5931 17.4872C34.8693 16.7306 34.3001 15.8505 33.8851 14.8514L33.8842 14.8505C33.4657 13.8351 33.2582 12.7517 33.2582 11.6063C33.2582 10.4615 33.4655 9.38229 33.8842 8.3739L34.0472 8.00281C34.4442 7.14922 34.9593 6.39203 35.5941 5.73523C36.319 4.98532 37.1708 4.39566 38.1449 3.96765L38.5179 3.81335C39.3944 3.47685 40.3234 3.3095 41.3011 3.30945Z" fill="#090C10" stroke="white"/>
<defs>
<radialGradient id="paint0_radial_5294_70774" cx="0" cy="0" r="1" gradientUnits="userSpaceOnUse" gradientTransform="translate(24.6775 10.3145) rotate(121.499) scale(13.0031 13.2068)">
<stop stop-color="#E230FF"/>
<stop offset="1" stop-color="#1D4EFF"/>
</radialGradient>
<linearGradient id="paint1_linear_5294_70774" x1="23.3717" y1="4.03335" x2="26.2305" y2="18.8922" gradientUnits="userSpaceOnUse">
<stop stop-color="#40A1D1"/>
<stop offset="1" stop-color="#39B8FF" stop-opacity="0"/>
</linearGradient>
</defs>
</svg>
